<svg xmlns="http://www.w3.org/2000/svg" fill="none" viewBox="0 0 394 80">
  <path fill="#000" d="M262 0h68.5v12.7h-27.2v66.6h-14.1V12.7H262zM149 0v12.7H95v20.4h43.5v12.6H95v21h55v12.6H80.7V0zm34.3 0 61 79.3h-17L174.8 11v68.3h-13.6V0zM63.3 0v79.3H52.2L13.6 17.2v62.1H0V0h14.7l35 56.4V0zm202.4 78.4c-1 0-1.8-.3-2.5-1s-1-1.5-1-2.5.3-1.8 1-2.5 1.5-1 2.5-1 1.8.3 2.5 1 1 1.5 1 2.5-.3 1.8-1 2.5-1.5 1-2.5 1m23.2-31.8h-6.8v-7.9h6.8V25.4h9v13.3h11v7.9h-11v21.7c0 2.6 1.3 3.8 4 3.8 2.4 0 5.2-.7 8.2-2.1v8.4c-3 1.4-6.1 2.1-9.3 2.1-7.9 0-11.9-4-11.9-12zM337.3 80c-6 0-10.9-1.9-14.6-5.6s-5.6-8.9-5.6-15.6c0-6.6 1.9-11.8 5.6-15.5s8.7-5.6 14.9-5.6c6.1 0 10.9 1.8 14.4 5.4s5.2 8.9 5.2 15.7v2.7h-31c.2 3.7 1.4 6.5 3.6 8.5s5.3 3 9.2 3c4.4 0 8.6-1.1 12.7-3.3v8.2c-4.1 1.4-8.9 2.1-14.4 2.1m11.2-25.6c-.2-3.1-1.2-5.5-3.1-7.2s-4.5-2.6-7.8-2.6c-3.4 0-6.1.9-8.1 2.7s-3.1 4.2-3.3 7.1zM394 39l-17.3 41h-9.2l17.2-41z"/>
</svg>
